# xmcd CD database file
#
# Track frame offsets:
#	150
#	17181
#	33817
#	56188
#	75676
#	99669
#
# Disc length: 1573 seconds
#
# Revision: 0
# Processed by: cddbd v1.5.1PL0 Copyright (c) Steve Scherf et al.
# Submitted via: CDex 1.40Release
#
DISCID=44062306
DTITLE=PepperJack - Pepperjack
DYEAR=2004
DGENRE=Country
TTITLE0=Angel's Flown
TTITLE1=Wasted Daze
TTITLE2=Hold On
TTITLE3=Foreign Roads
TTITLE4=The Final Act
TTITLE5=MT Physt
EXTD=YEAR: 2004 ID3G: 2
EXTT0=
EXTT1=
EXTT2=
EXTT3=
EXTT4=
EXTT5=
PLAYORDER=
